<svg xmlns="http://www.w3.org/2000/svg" xmlns:xlink="http://www.w3.org/1999/xlink" width="407" zoomAndPan="magnify" viewBox="0 0 305.25 69.749997" height="93" preserveAspectRatio="xMidYMid meet" version="1.0"><defs><g/></defs><g fill="#333333" fill-opacity="1"><g transform="translate(17.729064, 36.946419)"><g><path d="M 11.703125 0.34375 C 9.429688 0.34375 7.492188 -0.144531 5.890625 -1.125 C 4.296875 -2.101562 3.082031 -3.476562 2.25 -5.25 C 1.425781 -7.03125 1.015625 -9.117188 1.015625 -11.515625 C 1.015625 -13.828125 1.5 -15.867188 2.46875 -17.640625 C 3.445312 -19.421875 4.78125 -20.800781 6.46875 -21.78125 C 8.164062 -22.757812 10.066406 -23.25 12.171875 -23.25 C 13.765625 -23.25 15.675781 -23.003906 17.90625 -22.515625 L 18.921875 -22.328125 L 18.609375 -16.75 L 16.53125 -16.75 L 15.765625 -20.6875 C 15.472656 -20.9375 14.96875 -21.144531 14.25 -21.3125 C 13.539062 -21.488281 12.671875 -21.578125 11.640625 -21.578125 C 10.316406 -21.578125 9.140625 -21.203125 8.109375 -20.453125 C 7.078125 -19.703125 6.265625 -18.59375 5.671875 -17.125 C 5.085938 -15.65625 4.796875 -13.898438 4.796875 -11.859375 C 4.796875 -9.921875 5.050781 -8.15625 5.5625 -6.5625 C 6.082031 -4.976562 6.867188 -3.710938 7.921875 -2.765625 C 8.972656 -1.828125 10.273438 -1.359375 11.828125 -1.359375 C 12.921875 -1.359375 13.757812 -1.453125 14.34375 -1.640625 C 14.9375 -1.828125 15.441406 -2.097656 15.859375 -2.453125 L 17.15625 -5.484375 L 19.109375 -5.234375 L 18.359375 -0.84375 C 17.929688 -0.820312 17.289062 -0.675781 16.4375 -0.40625 C 15.695312 -0.175781 14.976562 0.00390625 14.28125 0.140625 C 13.59375 0.273438 12.734375 0.34375 11.703125 0.34375 Z M 11.703125 0.34375 "/></g></g></g><g fill="#333333" fill-opacity="1"><g transform="translate(38.192696, 36.946419)"><g><path d="M 10.8125 0.34375 C 8.707031 0.34375 6.925781 -0.140625 5.46875 -1.109375 C 4.007812 -2.085938 2.90625 -3.457031 2.15625 -5.21875 C 1.414062 -6.976562 1.046875 -9.023438 1.046875 -11.359375 C 1.046875 -13.734375 1.492188 -15.816406 2.390625 -17.609375 C 3.296875 -19.410156 4.53125 -20.800781 6.09375 -21.78125 C 7.664062 -22.757812 9.429688 -23.25 11.390625 -23.25 C 14.617188 -23.25 17.082031 -22.234375 18.78125 -20.203125 C 20.488281 -18.171875 21.34375 -15.359375 21.34375 -11.765625 C 21.34375 -9.347656 20.878906 -7.222656 19.953125 -5.390625 C 19.035156 -3.566406 17.773438 -2.15625 16.171875 -1.15625 C 14.578125 -0.15625 12.789062 0.34375 10.8125 0.34375 Z M 11.203125 -21.640625 C 9.203125 -21.640625 7.625 -20.765625 6.46875 -19.015625 C 5.3125 -17.273438 4.734375 -14.722656 4.734375 -11.359375 C 4.734375 -8.265625 5.296875 -5.8125 6.421875 -4 C 7.546875 -2.195312 9.125 -1.296875 11.15625 -1.296875 C 13.132812 -1.296875 14.707031 -2.191406 15.875 -3.984375 C 17.039062 -5.785156 17.625 -8.367188 17.625 -11.734375 C 17.625 -14.847656 17.066406 -17.273438 15.953125 -19.015625 C 14.835938 -20.765625 13.253906 -21.640625 11.203125 -21.640625 Z M 11.203125 -21.640625 "/></g></g></g><g fill="#333333" fill-opacity="1"><g transform="translate(60.792465, 36.946419)"><g><path d="M 1.421875 -1.515625 L 4 -1.828125 L 4 -21.09375 L 1.578125 -21.5 L 1.578125 -23.015625 L 5.640625 -23.015625 C 6.210938 -23.015625 6.992188 -23.054688 7.984375 -23.140625 C 9.015625 -23.210938 9.820312 -23.25 10.40625 -23.25 C 13.4375 -23.25 15.597656 -22.757812 16.890625 -21.78125 C 18.179688 -20.800781 18.828125 -19.257812 18.828125 -17.15625 C 18.828125 -15.6875 18.414062 -14.34375 17.59375 -13.125 C 16.78125 -11.90625 15.664062 -11.082031 14.25 -10.65625 C 14.90625 -10.300781 15.515625 -9.695312 16.078125 -8.84375 C 16.648438 -7.988281 17.347656 -6.796875 18.171875 -5.265625 C 18.816406 -4.109375 19.304688 -3.257812 19.640625 -2.71875 C 19.984375 -2.1875 20.3125 -1.890625 20.625 -1.828125 L 21.828125 -1.515625 L 21.828125 0 L 17.5625 0 C 17.226562 0 16.851562 -0.351562 16.4375 -1.0625 C 16.03125 -1.78125 15.484375 -2.878906 14.796875 -4.359375 C 14.054688 -5.992188 13.410156 -7.289062 12.859375 -8.25 C 12.316406 -9.207031 11.773438 -9.820312 11.234375 -10.09375 C 9.023438 -10.09375 7.71875 -10.101562 7.3125 -10.125 L 7.3125 -1.828125 L 10.375 -1.515625 L 10.375 0 L 1.421875 0 Z M 11 -11.765625 C 12.3125 -11.765625 13.347656 -12.195312 14.109375 -13.0625 C 14.878906 -13.9375 15.265625 -15.226562 15.265625 -16.9375 C 15.265625 -18.445312 14.875 -19.597656 14.09375 -20.390625 C 13.320312 -21.179688 11.988281 -21.578125 10.09375 -21.578125 C 9.4375 -21.578125 8.773438 -21.539062 8.109375 -21.46875 C 7.703125 -21.425781 7.4375 -21.40625 7.3125 -21.40625 L 7.3125 -11.796875 C 7.613281 -11.773438 8.253906 -11.765625 9.234375 -11.765625 Z M 11 -11.765625 "/></g></g></g><g fill="#333333" fill-opacity="1"><g transform="translate(82.83498, 36.946419)"><g><path d="M 4.0625 -21.09375 L 1.640625 -21.46875 L 1.640625 -23.015625 L 5.765625 -23.015625 C 6.503906 -23.015625 7.234375 -23.046875 7.953125 -23.109375 C 9.066406 -23.179688 10.125 -23.21875 11.125 -23.21875 C 14.113281 -23.207031 16.226562 -22.648438 17.46875 -21.546875 C 18.707031 -20.453125 19.328125 -18.800781 19.328125 -16.59375 C 19.328125 -14.945312 18.941406 -13.515625 18.171875 -12.296875 C 17.410156 -11.078125 16.351562 -10.144531 15 -9.5 C 13.644531 -8.863281 12.09375 -8.546875 10.34375 -8.546875 C 9.75 -8.546875 9.140625 -8.5625 8.515625 -8.59375 C 7.898438 -8.625 7.519531 -8.648438 7.375 -8.671875 L 7.375 -1.859375 L 11.609375 -1.515625 L 11.609375 0 L 1.484375 0 L 1.484375 -1.515625 L 4.0625 -1.828125 Z M 7.375 -10.375 C 7.945312 -10.269531 8.9375 -10.21875 10.34375 -10.21875 C 11.976562 -10.21875 13.304688 -10.710938 14.328125 -11.703125 C 15.347656 -12.691406 15.859375 -14.3125 15.859375 -16.5625 C 15.859375 -18.34375 15.410156 -19.617188 14.515625 -20.390625 C 13.628906 -21.160156 12.25 -21.546875 10.375 -21.546875 C 9.71875 -21.546875 9.015625 -21.507812 8.265625 -21.4375 C 7.816406 -21.394531 7.519531 -21.375 7.375 -21.375 Z M 7.375 -10.375 "/></g></g></g><g fill="#333333" fill-opacity="1"><g transform="translate(103.174774, 36.946419)"><g><path d="M 11.796875 0.25 C 8.765625 0.25 6.53125 -0.554688 5.09375 -2.171875 C 3.65625 -3.796875 2.9375 -6.3125 2.9375 -9.71875 L 2.9375 -21.09375 L 0.75 -21.46875 L 0.75 -23.015625 L 9.015625 -23.015625 L 9.015625 -21.46875 L 6.375 -21.0625 L 6.375 -9.390625 C 6.375 -6.578125 6.875 -4.550781 7.875 -3.3125 C 8.882812 -2.070312 10.328125 -1.453125 12.203125 -1.453125 C 14.078125 -1.453125 15.484375 -2.113281 16.421875 -3.4375 C 17.367188 -4.757812 17.84375 -6.679688 17.84375 -9.203125 L 17.84375 -21.0625 L 15.234375 -21.46875 L 15.234375 -23.015625 L 22.453125 -23.015625 L 22.453125 -21.46875 L 20.1875 -21.09375 L 20.1875 -9.359375 C 20.1875 -6.128906 19.421875 -3.71875 17.890625 -2.125 C 16.367188 -0.539062 14.335938 0.25 11.796875 0.25 Z M 11.796875 0.25 "/></g></g></g><g fill="#333333" fill-opacity="1"><g transform="translate(126.331794, 36.946419)"><g><path d="M 8.984375 0.34375 C 7.910156 0.34375 6.945312 0.25 6.09375 0.0625 C 5.25 -0.125 4.320312 -0.375 3.3125 -0.6875 C 2.695312 -0.90625 2.234375 -1.023438 1.921875 -1.046875 L 2.171875 -6.65625 L 4.15625 -6.65625 L 4.671875 -2.625 C 5.023438 -2.300781 5.597656 -2.007812 6.390625 -1.75 C 7.191406 -1.488281 8.066406 -1.359375 9.015625 -1.359375 C 10.578125 -1.359375 11.765625 -1.707031 12.578125 -2.40625 C 13.398438 -3.113281 13.8125 -4.085938 13.8125 -5.328125 C 13.8125 -6.128906 13.585938 -6.816406 13.140625 -7.390625 C 12.703125 -7.972656 12.113281 -8.46875 11.375 -8.875 C 10.644531 -9.289062 9.640625 -9.78125 8.359375 -10.34375 C 7.203125 -10.863281 6.195312 -11.390625 5.34375 -11.921875 C 4.488281 -12.460938 3.742188 -13.179688 3.109375 -14.078125 C 2.484375 -14.972656 2.171875 -16.050781 2.171875 -17.3125 C 2.171875 -18.445312 2.472656 -19.460938 3.078125 -20.359375 C 3.691406 -21.253906 4.570312 -21.957031 5.71875 -22.46875 C 6.863281 -22.988281 8.195312 -23.25 9.71875 -23.25 C 10.675781 -23.25 11.519531 -23.175781 12.25 -23.03125 C 12.976562 -22.894531 13.804688 -22.703125 14.734375 -22.453125 C 15.148438 -22.304688 15.503906 -22.210938 15.796875 -22.171875 L 15.609375 -16.96875 L 13.71875 -16.96875 L 13.09375 -20.78125 C 12.894531 -20.988281 12.46875 -21.179688 11.8125 -21.359375 C 11.164062 -21.546875 10.457031 -21.640625 9.6875 -21.640625 C 8.269531 -21.640625 7.191406 -21.335938 6.453125 -20.734375 C 5.722656 -20.140625 5.359375 -19.273438 5.359375 -18.140625 C 5.359375 -17.316406 5.578125 -16.625 6.015625 -16.0625 C 6.460938 -15.507812 7.015625 -15.035156 7.671875 -14.640625 C 8.335938 -14.253906 9.394531 -13.71875 10.84375 -13.03125 C 12.1875 -12.394531 13.28125 -11.816406 14.125 -11.296875 C 14.96875 -10.785156 15.691406 -10.109375 16.296875 -9.265625 C 16.910156 -8.429688 17.21875 -7.4375 17.21875 -6.28125 C 17.21875 -5.1875 16.910156 -4.132812 16.296875 -3.125 C 15.691406 -2.113281 14.765625 -1.28125 13.515625 -0.625 C 12.265625 0.0195312 10.753906 0.34375 8.984375 0.34375 Z M 8.984375 0.34375 "/></g></g></g><g fill="#333333" fill-opacity="1"><g transform="translate(144.968882, 36.946419)"><g/></g></g><g fill="#333333" fill-opacity="1"><g transform="translate(152.553788, 36.946419)"><g><path d="M 11.703125 0.34375 C 9.429688 0.34375 7.492188 -0.144531 5.890625 -1.125 C 4.296875 -2.101562 3.082031 -3.476562 2.25 -5.25 C 1.425781 -7.03125 1.015625 -9.117188 1.015625 -11.515625 C 1.015625 -13.828125 1.5 -15.867188 2.46875 -17.640625 C 3.445312 -19.421875 4.78125 -20.800781 6.46875 -21.78125 C 8.164062 -22.757812 10.066406 -23.25 12.171875 -23.25 C 13.765625 -23.25 15.675781 -23.003906 17.90625 -22.515625 L 18.921875 -22.328125 L 18.609375 -16.75 L 16.53125 -16.75 L 15.765625 -20.6875 C 15.472656 -20.9375 14.96875 -21.144531 14.25 -21.3125 C 13.539062 -21.488281 12.671875 -21.578125 11.640625 -21.578125 C 10.316406 -21.578125 9.140625 -21.203125 8.109375 -20.453125 C 7.078125 -19.703125 6.265625 -18.59375 5.671875 -17.125 C 5.085938 -15.65625 4.796875 -13.898438 4.796875 -11.859375 C 4.796875 -9.921875 5.050781 -8.15625 5.5625 -6.5625 C 6.082031 -4.976562 6.867188 -3.710938 7.921875 -2.765625 C 8.972656 -1.828125 10.273438 -1.359375 11.828125 -1.359375 C 12.921875 -1.359375 13.757812 -1.453125 14.34375 -1.640625 C 14.9375 -1.828125 15.441406 -2.097656 15.859375 -2.453125 L 17.15625 -5.484375 L 19.109375 -5.234375 L 18.359375 -0.84375 C 17.929688 -0.820312 17.289062 -0.675781 16.4375 -0.40625 C 15.695312 -0.175781 14.976562 0.00390625 14.28125 0.140625 C 13.59375 0.273438 12.734375 0.34375 11.703125 0.34375 Z M 11.703125 0.34375 "/></g></g></g><g fill="#333333" fill-opacity="1"><g transform="translate(173.017414, 36.946419)"><g><path d="M 4.0625 -21.09375 L 1.609375 -21.46875 L 1.609375 -23.015625 L 10.03125 -23.015625 L 10.03125 -21.46875 L 7.375 -21.09375 L 7.375 -12.765625 L 18.265625 -12.765625 L 18.265625 -21.09375 L 15.765625 -21.46875 L 15.765625 -23.015625 L 24.0625 -23.015625 L 24.0625 -21.46875 L 21.609375 -21.09375 L 21.609375 -1.828125 L 24.0625 -1.515625 L 24.0625 0 L 15.734375 0 L 15.734375 -1.515625 L 18.265625 -1.828125 L 18.265625 -10.84375 L 7.375 -10.84375 L 7.375 -1.828125 L 10.0625 -1.515625 L 10.0625 0 L 1.546875 0 L 1.546875 -1.515625 L 4.0625 -1.828125 Z M 4.0625 -21.09375 "/></g></g></g><g fill="#333333" fill-opacity="1"><g transform="translate(198.898783, 36.946419)"><g><path d="M 1.421875 -1.515625 L 4 -1.828125 L 4 -21.09375 L 1.578125 -21.5 L 1.578125 -23.015625 L 5.640625 -23.015625 C 6.210938 -23.015625 6.992188 -23.054688 7.984375 -23.140625 C 9.015625 -23.210938 9.820312 -23.25 10.40625 -23.25 C 13.4375 -23.25 15.597656 -22.757812 16.890625 -21.78125 C 18.179688 -20.800781 18.828125 -19.257812 18.828125 -17.15625 C 18.828125 -15.6875 18.414062 -14.34375 17.59375 -13.125 C 16.78125 -11.90625 15.664062 -11.082031 14.25 -10.65625 C 14.90625 -10.300781 15.515625 -9.695312 16.078125 -8.84375 C 16.648438 -7.988281 17.347656 -6.796875 18.171875 -5.265625 C 18.816406 -4.109375 19.304688 -3.257812 19.640625 -2.71875 C 19.984375 -2.1875 20.3125 -1.890625 20.625 -1.828125 L 21.828125 -1.515625 L 21.828125 0 L 17.5625 0 C 17.226562 0 16.851562 -0.351562 16.4375 -1.0625 C 16.03125 -1.78125 15.484375 -2.878906 14.796875 -4.359375 C 14.054688 -5.992188 13.410156 -7.289062 12.859375 -8.25 C 12.316406 -9.207031 11.773438 -9.820312 11.234375 -10.09375 C 9.023438 -10.09375 7.71875 -10.101562 7.3125 -10.125 L 7.3125 -1.828125 L 10.375 -1.515625 L 10.375 0 L 1.421875 0 Z M 11 -11.765625 C 12.3125 -11.765625 13.347656 -12.195312 14.109375 -13.0625 C 14.878906 -13.9375 15.265625 -15.226562 15.265625 -16.9375 C 15.265625 -18.445312 14.875 -19.597656 14.09375 -20.390625 C 13.320312 -21.179688 11.988281 -21.578125 10.09375 -21.578125 C 9.4375 -21.578125 8.773438 -21.539062 8.109375 -21.46875 C 7.703125 -21.425781 7.4375 -21.40625 7.3125 -21.40625 L 7.3125 -11.796875 C 7.613281 -11.773438 8.253906 -11.765625 9.234375 -11.765625 Z M 11 -11.765625 "/></g></g></g><g fill="#333333" fill-opacity="1"><g transform="translate(220.941293, 36.946419)"><g><path d="M 4.546875 -21.09375 L 1.671875 -21.46875 L 1.671875 -23.015625 L 10.78125 -23.015625 L 10.78125 -21.46875 L 7.890625 -21.09375 L 7.890625 -1.828125 L 10.78125 -1.484375 L 10.78125 0 L 1.703125 0 L 1.703125 -1.515625 L 4.546875 -1.828125 Z M 4.546875 -21.09375 "/></g></g></g><g fill="#333333" fill-opacity="1"><g transform="translate(233.665298, 36.946419)"><g><path d="M 8.984375 0.34375 C 7.910156 0.34375 6.945312 0.25 6.09375 0.0625 C 5.25 -0.125 4.320312 -0.375 3.3125 -0.6875 C 2.695312 -0.90625 2.234375 -1.023438 1.921875 -1.046875 L 2.171875 -6.65625 L 4.15625 -6.65625 L 4.671875 -2.625 C 5.023438 -2.300781 5.597656 -2.007812 6.390625 -1.75 C 7.191406 -1.488281 8.066406 -1.359375 9.015625 -1.359375 C 10.578125 -1.359375 11.765625 -1.707031 12.578125 -2.40625 C 13.398438 -3.113281 13.8125 -4.085938 13.8125 -5.328125 C 13.8125 -6.128906 13.585938 -6.816406 13.140625 -7.390625 C 12.703125 -7.972656 12.113281 -8.46875 11.375 -8.875 C 10.644531 -9.289062 9.640625 -9.78125 8.359375 -10.34375 C 7.203125 -10.863281 6.195312 -11.390625 5.34375 -11.921875 C 4.488281 -12.460938 3.742188 -13.179688 3.109375 -14.078125 C 2.484375 -14.972656 2.171875 -16.050781 2.171875 -17.3125 C 2.171875 -18.445312 2.472656 -19.460938 3.078125 -20.359375 C 3.691406 -21.253906 4.570312 -21.957031 5.71875 -22.46875 C 6.863281 -22.988281 8.195312 -23.25 9.71875 -23.25 C 10.675781 -23.25 11.519531 -23.175781 12.25 -23.03125 C 12.976562 -22.894531 13.804688 -22.703125 14.734375 -22.453125 C 15.148438 -22.304688 15.503906 -22.210938 15.796875 -22.171875 L 15.609375 -16.96875 L 13.71875 -16.96875 L 13.09375 -20.78125 C 12.894531 -20.988281 12.46875 -21.179688 11.8125 -21.359375 C 11.164062 -21.546875 10.457031 -21.640625 9.6875 -21.640625 C 8.269531 -21.640625 7.191406 -21.335938 6.453125 -20.734375 C 5.722656 -20.140625 5.359375 -19.273438 5.359375 -18.140625 C 5.359375 -17.316406 5.578125 -16.625 6.015625 -16.0625 C 6.460938 -15.507812 7.015625 -15.035156 7.671875 -14.640625 C 8.335938 -14.253906 9.394531 -13.71875 10.84375 -13.03125 C 12.1875 -12.394531 13.28125 -11.816406 14.125 -11.296875 C 14.96875 -10.785156 15.691406 -10.109375 16.296875 -9.265625 C 16.910156 -8.429688 17.21875 -7.4375 17.21875 -6.28125 C 17.21875 -5.1875 16.910156 -4.132812 16.296875 -3.125 C 15.691406 -2.113281 14.765625 -1.28125 13.515625 -0.625 C 12.265625 0.0195312 10.753906 0.34375 8.984375 0.34375 Z M 8.984375 0.34375 "/></g></g></g><g fill="#333333" fill-opacity="1"><g transform="translate(252.302386, 36.946419)"><g><path d="M 8.984375 -21.375 L 3.65625 -21.1875 L 2.578125 -14.703125 L 0.53125 -14.703125 L 1.046875 -23.015625 L 20.34375 -23.015625 L 20.71875 -14.703125 L 18.765625 -14.703125 L 17.75 -21.1875 L 12.390625 -21.375 L 12.390625 -1.828125 L 16.78125 -1.515625 L 16.78125 0 L 4.953125 0 L 4.953125 -1.515625 L 8.984375 -1.828125 Z M 8.984375 -21.375 "/></g></g></g><g fill="#333333" fill-opacity="1"><g transform="translate(273.973393, 36.946419)"><g><path d="M 4.546875 -21.09375 L 1.671875 -21.46875 L 1.671875 -23.015625 L 10.78125 -23.015625 L 10.78125 -21.46875 L 7.890625 -21.09375 L 7.890625 -1.828125 L 10.78125 -1.484375 L 10.78125 0 L 1.703125 0 L 1.703125 -1.515625 L 4.546875 -1.828125 Z M 4.546875 -21.09375 "/></g></g></g><g fill="#333333" fill-opacity="1"><g transform="translate(33.195007, 59.676047)"><g><path d="M 5.09375 -13.15625 L 7.03125 -13.15625 L 11.296875 -1.03125 L 12.375 -0.859375 L 12.375 0 L 7.75 0 L 7.75 -0.859375 L 9.203125 -1.03125 L 8.375 -3.640625 L 3.25 -3.640625 L 2.421875 -1.03125 L 3.9375 -0.859375 L 3.9375 0 L -0.234375 0 L -0.234375 -0.859375 L 0.859375 -1.03125 Z M 6.203125 -10.34375 L 5.765625 -11.890625 L 5.34375 -10.3125 L 3.5625 -4.671875 L 8.046875 -4.671875 Z M 6.203125 -10.34375 "/></g></g></g><g fill="#333333" fill-opacity="1"><g transform="translate(49.719535, 59.676047)"><g><path d="M 2.28125 -11.953125 L 0.875 -12.171875 L 0.875 -13.046875 L 4.140625 -13.046875 L 10 -4.484375 L 10.96875 -2.609375 L 10.96875 -11.953125 L 9.453125 -12.171875 L 9.453125 -13.046875 L 13.59375 -13.046875 L 13.59375 -12.171875 L 12.1875 -11.953125 L 12.1875 0 L 10.796875 0 L 4.828125 -8.765625 L 3.484375 -11.078125 L 3.484375 -1.03125 L 5.140625 -0.859375 L 5.140625 0 L 0.875 0 L 0.875 -0.859375 L 2.28125 -1.046875 Z M 2.28125 -11.953125 "/></g></g></g><g fill="#333333" fill-opacity="1"><g transform="translate(68.122746, 59.676047)"><g><path d="M 6.84375 0.1875 C 5.582031 0.1875 4.488281 -0.09375 3.5625 -0.65625 C 2.644531 -1.21875 1.945312 -1.988281 1.46875 -2.96875 C 0.988281 -3.957031 0.75 -5.082031 0.75 -6.34375 C 0.75 -7.78125 1.03125 -9.015625 1.59375 -10.046875 C 2.164062 -11.078125 2.957031 -11.859375 3.96875 -12.390625 C 4.976562 -12.921875 6.125 -13.1875 7.40625 -13.1875 C 8.59375 -13.1875 9.957031 -13.003906 11.5 -12.640625 L 11.34375 -9.609375 L 10.09375 -9.609375 L 9.671875 -11.71875 C 9.515625 -11.84375 9.238281 -11.960938 8.84375 -12.078125 C 8.445312 -12.203125 7.921875 -12.265625 7.265625 -12.265625 C 6.410156 -12.265625 5.65625 -12.050781 5 -11.625 C 4.34375 -11.207031 3.832031 -10.582031 3.46875 -9.75 C 3.101562 -8.914062 2.921875 -7.90625 2.921875 -6.71875 C 2.921875 -5.632812 3.066406 -4.640625 3.359375 -3.734375 C 3.660156 -2.835938 4.117188 -2.113281 4.734375 -1.5625 C 5.347656 -1.019531 6.097656 -0.75 6.984375 -0.75 C 7.546875 -0.75 8.078125 -0.816406 8.578125 -0.953125 C 9.085938 -1.085938 9.476562 -1.269531 9.75 -1.5 L 9.75 -5.40625 L 7.53125 -5.578125 L 7.53125 -6.625 L 12.65625 -6.625 L 12.65625 -5.578125 L 11.640625 -5.421875 L 11.640625 -0.703125 C 11.378906 -0.691406 10.953125 -0.59375 10.359375 -0.40625 C 9.753906 -0.21875 9.179688 -0.0703125 8.640625 0.03125 C 8.097656 0.132812 7.5 0.1875 6.84375 0.1875 Z M 6.84375 0.1875 "/></g></g></g><g fill="#333333" fill-opacity="1"><g transform="translate(85.490042, 59.676047)"><g><path d="M 2.296875 -11.953125 L 0.875 -12.171875 L 0.875 -13.046875 L 5.921875 -13.046875 L 5.921875 -12.171875 L 4.1875 -11.953125 L 4.1875 -1.03125 L 8.71875 -1.1875 L 9.75 -4.140625 L 10.8125 -3.984375 L 10.203125 0 L 0.84375 0 L 0.84375 -0.859375 L 2.296875 -1.03125 Z M 2.296875 -11.953125 "/></g></g></g><g fill="#333333" fill-opacity="1"><g transform="translate(100.996222, 59.676047)"><g><path d="M 2.578125 -11.953125 L 0.953125 -12.171875 L 0.953125 -13.046875 L 6.109375 -13.046875 L 6.109375 -12.171875 L 4.484375 -11.953125 L 4.484375 -1.03125 L 6.109375 -0.84375 L 6.109375 0 L 0.96875 0 L 0.96875 -0.859375 L 2.578125 -1.03125 Z M 2.578125 -11.953125 "/></g></g></g><g fill="#333333" fill-opacity="1"><g transform="translate(112.446573, 59.676047)"><g><path d="M 6.640625 0.1875 C 5.347656 0.1875 4.25 -0.0859375 3.34375 -0.640625 C 2.4375 -1.191406 1.75 -1.972656 1.28125 -2.984375 C 0.8125 -3.992188 0.578125 -5.175781 0.578125 -6.53125 C 0.578125 -7.84375 0.851562 -9 1.40625 -10 C 1.957031 -11.007812 2.710938 -11.789062 3.671875 -12.34375 C 4.628906 -12.90625 5.707031 -13.1875 6.90625 -13.1875 C 7.800781 -13.1875 8.882812 -13.046875 10.15625 -12.765625 L 10.734375 -12.65625 L 10.5625 -9.5 L 9.375 -9.5 L 8.9375 -11.734375 C 8.769531 -11.867188 8.484375 -11.984375 8.078125 -12.078125 C 7.679688 -12.179688 7.191406 -12.234375 6.609375 -12.234375 C 5.859375 -12.234375 5.1875 -12.019531 4.59375 -11.59375 C 4.007812 -11.164062 3.550781 -10.535156 3.21875 -9.703125 C 2.882812 -8.878906 2.71875 -7.882812 2.71875 -6.71875 C 2.71875 -5.625 2.863281 -4.625 3.15625 -3.71875 C 3.445312 -2.820312 3.890625 -2.101562 4.484375 -1.5625 C 5.085938 -1.03125 5.828125 -0.765625 6.703125 -0.765625 C 7.328125 -0.765625 7.804688 -0.816406 8.140625 -0.921875 C 8.472656 -1.035156 8.753906 -1.191406 8.984375 -1.390625 L 9.734375 -3.109375 L 10.84375 -2.96875 L 10.421875 -0.46875 C 10.171875 -0.457031 9.804688 -0.378906 9.328125 -0.234375 C 8.898438 -0.0976562 8.488281 0.00390625 8.09375 0.078125 C 7.707031 0.148438 7.222656 0.1875 6.640625 0.1875 Z M 6.640625 0.1875 "/></g></g></g><g fill="#333333" fill-opacity="1"><g transform="translate(128.286353, 59.676047)"><g><path d="M 5.09375 -13.15625 L 7.03125 -13.15625 L 11.296875 -1.03125 L 12.375 -0.859375 L 12.375 0 L 7.75 0 L 7.75 -0.859375 L 9.203125 -1.03125 L 8.375 -3.640625 L 3.25 -3.640625 L 2.421875 -1.03125 L 3.9375 -0.859375 L 3.9375 0 L -0.234375 0 L -0.234375 -0.859375 L 0.859375 -1.03125 Z M 6.203125 -10.34375 L 5.765625 -11.890625 L 5.34375 -10.3125 L 3.5625 -4.671875 L 8.046875 -4.671875 Z M 6.203125 -10.34375 "/></g></g></g><g fill="#333333" fill-opacity="1"><g transform="translate(144.810876, 59.676047)"><g><path d="M 2.28125 -11.953125 L 0.875 -12.171875 L 0.875 -13.046875 L 4.140625 -13.046875 L 10 -4.484375 L 10.96875 -2.609375 L 10.96875 -11.953125 L 9.453125 -12.171875 L 9.453125 -13.046875 L 13.59375 -13.046875 L 13.59375 -12.171875 L 12.1875 -11.953125 L 12.1875 0 L 10.796875 0 L 4.828125 -8.765625 L 3.484375 -11.078125 L 3.484375 -1.03125 L 5.140625 -0.859375 L 5.140625 0 L 0.875 0 L 0.875 -0.859375 L 2.28125 -1.046875 Z M 2.28125 -11.953125 "/></g></g></g><g fill="#333333" fill-opacity="1"><g transform="translate(163.214092, 59.676047)"><g/></g></g><g fill="#333333" fill-opacity="1"><g transform="translate(171.749859, 59.676047)"><g><path d="M 6.640625 0.1875 C 5.347656 0.1875 4.25 -0.0859375 3.34375 -0.640625 C 2.4375 -1.191406 1.75 -1.972656 1.28125 -2.984375 C 0.8125 -3.992188 0.578125 -5.175781 0.578125 -6.53125 C 0.578125 -7.84375 0.851562 -9 1.40625 -10 C 1.957031 -11.007812 2.710938 -11.789062 3.671875 -12.34375 C 4.628906 -12.90625 5.707031 -13.1875 6.90625 -13.1875 C 7.800781 -13.1875 8.882812 -13.046875 10.15625 -12.765625 L 10.734375 -12.65625 L 10.5625 -9.5 L 9.375 -9.5 L 8.9375 -11.734375 C 8.769531 -11.867188 8.484375 -11.984375 8.078125 -12.078125 C 7.679688 -12.179688 7.191406 -12.234375 6.609375 -12.234375 C 5.859375 -12.234375 5.1875 -12.019531 4.59375 -11.59375 C 4.007812 -11.164062 3.550781 -10.535156 3.21875 -9.703125 C 2.882812 -8.878906 2.71875 -7.882812 2.71875 -6.71875 C 2.71875 -5.625 2.863281 -4.625 3.15625 -3.71875 C 3.445312 -2.820312 3.890625 -2.101562 4.484375 -1.5625 C 5.085938 -1.03125 5.828125 -0.765625 6.703125 -0.765625 C 7.328125 -0.765625 7.804688 -0.816406 8.140625 -0.921875 C 8.472656 -1.035156 8.753906 -1.191406 8.984375 -1.390625 L 9.734375 -3.109375 L 10.84375 -2.96875 L 10.421875 -0.46875 C 10.171875 -0.457031 9.804688 -0.378906 9.328125 -0.234375 C 8.898438 -0.0976562 8.488281 0.00390625 8.09375 0.078125 C 7.707031 0.148438 7.222656 0.1875 6.640625 0.1875 Z M 6.640625 0.1875 "/></g></g></g><g fill="#333333" fill-opacity="1"><g transform="translate(187.589645, 59.676047)"><g><path d="M 2.296875 -11.953125 L 0.90625 -12.171875 L 0.90625 -13.046875 L 5.6875 -13.046875 L 5.6875 -12.171875 L 4.1875 -11.953125 L 4.1875 -7.234375 L 10.359375 -7.234375 L 10.359375 -11.953125 L 8.9375 -12.171875 L 8.9375 -13.046875 L 13.640625 -13.046875 L 13.640625 -12.171875 L 12.265625 -11.953125 L 12.265625 -1.03125 L 13.640625 -0.859375 L 13.640625 0 L 8.921875 0 L 8.921875 -0.859375 L 10.359375 -1.03125 L 10.359375 -6.140625 L 4.1875 -6.140625 L 4.1875 -1.03125 L 5.703125 -0.859375 L 5.703125 0 L 0.875 0 L 0.875 -0.859375 L 2.296875 -1.03125 Z M 2.296875 -11.953125 "/></g></g></g><g fill="#333333" fill-opacity="1"><g transform="translate(206.502019, 59.676047)"><g><path d="M 6.6875 0.140625 C 4.96875 0.140625 3.703125 -0.316406 2.890625 -1.234375 C 2.078125 -2.148438 1.671875 -3.578125 1.671875 -5.515625 L 1.671875 -11.953125 L 0.421875 -12.171875 L 0.421875 -13.046875 L 5.109375 -13.046875 L 5.109375 -12.171875 L 3.625 -11.9375 L 3.625 -5.328125 C 3.625 -3.734375 3.90625 -2.582031 4.46875 -1.875 C 5.039062 -1.175781 5.859375 -0.828125 6.921875 -0.828125 C 7.984375 -0.828125 8.78125 -1.203125 9.3125 -1.953125 C 9.84375 -2.703125 10.109375 -3.789062 10.109375 -5.21875 L 10.109375 -11.9375 L 8.640625 -12.171875 L 8.640625 -13.046875 L 12.734375 -13.046875 L 12.734375 -12.171875 L 11.453125 -11.953125 L 11.453125 -5.296875 C 11.453125 -3.472656 11.015625 -2.109375 10.140625 -1.203125 C 9.273438 -0.304688 8.125 0.140625 6.6875 0.140625 Z M 6.6875 0.140625 "/></g></g></g><g fill="#333333" fill-opacity="1"><g transform="translate(223.869321, 59.676047)"><g><path d="M 0.8125 -0.859375 L 2.265625 -1.03125 L 2.265625 -11.953125 L 0.890625 -12.1875 L 0.890625 -13.046875 L 3.203125 -13.046875 C 3.523438 -13.046875 3.96875 -13.070312 4.53125 -13.125 C 5.113281 -13.164062 5.570312 -13.1875 5.90625 -13.1875 C 7.625 -13.1875 8.847656 -12.90625 9.578125 -12.34375 C 10.304688 -11.789062 10.671875 -10.921875 10.671875 -9.734375 C 10.671875 -8.898438 10.441406 -8.132812 9.984375 -7.4375 C 9.523438 -6.75 8.890625 -6.285156 8.078125 -6.046875 C 8.453125 -5.847656 8.800781 -5.503906 9.125 -5.015625 C 9.445312 -4.523438 9.84375 -3.847656 10.3125 -2.984375 C 10.675781 -2.328125 10.953125 -1.847656 11.140625 -1.546875 C 11.335938 -1.242188 11.523438 -1.070312 11.703125 -1.03125 L 12.375 -0.859375 L 12.375 0 L 9.953125 0 C 9.765625 0 9.550781 -0.203125 9.3125 -0.609375 C 9.082031 -1.015625 8.773438 -1.632812 8.390625 -2.46875 C 7.972656 -3.394531 7.609375 -4.128906 7.296875 -4.671875 C 6.984375 -5.222656 6.675781 -5.570312 6.375 -5.71875 C 5.125 -5.71875 4.378906 -5.726562 4.140625 -5.75 L 4.140625 -1.03125 L 5.890625 -0.859375 L 5.890625 0 L 0.8125 0 Z M 6.234375 -6.671875 C 6.984375 -6.671875 7.570312 -6.914062 8 -7.40625 C 8.4375 -7.90625 8.65625 -8.640625 8.65625 -9.609375 C 8.65625 -10.460938 8.4375 -11.113281 8 -11.5625 C 7.5625 -12.007812 6.800781 -12.234375 5.71875 -12.234375 C 5.34375 -12.234375 4.96875 -12.210938 4.59375 -12.171875 C 4.363281 -12.148438 4.210938 -12.140625 4.140625 -12.140625 L 4.140625 -6.6875 C 4.316406 -6.675781 4.679688 -6.671875 5.234375 -6.671875 Z M 6.234375 -6.671875 "/></g></g></g><g fill="#333333" fill-opacity="1"><g transform="translate(240.604538, 59.676047)"><g><path d="M 6.640625 0.1875 C 5.347656 0.1875 4.25 -0.0859375 3.34375 -0.640625 C 2.4375 -1.191406 1.75 -1.972656 1.28125 -2.984375 C 0.8125 -3.992188 0.578125 -5.175781 0.578125 -6.53125 C 0.578125 -7.84375 0.851562 -9 1.40625 -10 C 1.957031 -11.007812 2.710938 -11.789062 3.671875 -12.34375 C 4.628906 -12.90625 5.707031 -13.1875 6.90625 -13.1875 C 7.800781 -13.1875 8.882812 -13.046875 10.15625 -12.765625 L 10.734375 -12.65625 L 10.5625 -9.5 L 9.375 -9.5 L 8.9375 -11.734375 C 8.769531 -11.867188 8.484375 -11.984375 8.078125 -12.078125 C 7.679688 -12.179688 7.191406 -12.234375 6.609375 -12.234375 C 5.859375 -12.234375 5.1875 -12.019531 4.59375 -11.59375 C 4.007812 -11.164062 3.550781 -10.535156 3.21875 -9.703125 C 2.882812 -8.878906 2.71875 -7.882812 2.71875 -6.71875 C 2.71875 -5.625 2.863281 -4.625 3.15625 -3.71875 C 3.445312 -2.820312 3.890625 -2.101562 4.484375 -1.5625 C 5.085938 -1.03125 5.828125 -0.765625 6.703125 -0.765625 C 7.328125 -0.765625 7.804688 -0.816406 8.140625 -0.921875 C 8.472656 -1.035156 8.753906 -1.191406 8.984375 -1.390625 L 9.734375 -3.109375 L 10.84375 -2.96875 L 10.421875 -0.46875 C 10.171875 -0.457031 9.804688 -0.378906 9.328125 -0.234375 C 8.898438 -0.0976562 8.488281 0.00390625 8.09375 0.078125 C 7.707031 0.148438 7.222656 0.1875 6.640625 0.1875 Z M 6.640625 0.1875 "/></g></g></g><g fill="#333333" fill-opacity="1"><g transform="translate(256.444324, 59.676047)"><g><path d="M 2.296875 -11.953125 L 0.90625 -12.171875 L 0.90625 -13.046875 L 5.6875 -13.046875 L 5.6875 -12.171875 L 4.1875 -11.953125 L 4.1875 -7.234375 L 10.359375 -7.234375 L 10.359375 -11.953125 L 8.9375 -12.171875 L 8.9375 -13.046875 L 13.640625 -13.046875 L 13.640625 -12.171875 L 12.265625 -11.953125 L 12.265625 -1.03125 L 13.640625 -0.859375 L 13.640625 0 L 8.921875 0 L 8.921875 -0.859375 L 10.359375 -1.03125 L 10.359375 -6.140625 L 4.1875 -6.140625 L 4.1875 -1.03125 L 5.703125 -0.859375 L 5.703125 0 L 0.875 0 L 0.875 -0.859375 L 2.296875 -1.03125 Z M 2.296875 -11.953125 "/></g></g></g></svg>